<?xml version="1.0" encoding="UTF-8"?>
<svg id="Layer_1" data-name="Layer 1" xmlns="http://www.w3.org/2000/svg" viewBox="0 0 65.34 65.34">
  <defs>
    <style>
      .cls-1 {
        fill: #f19be3;
      }
    </style>
  </defs>
  <g id="Layer_2" data-name="Layer 2">
    <g id="Layer_1-2" data-name="Layer 1-2">
      <path class="cls-1" d="m37.38,30.26c32.24-19.88,17.62-34.53-2.3-2.26-.11.21-.37.29-.58.18-.18-.1-.27-.31-.21-.51,8.75-36.85-12-36.85-3.24,0,.07.23-.06.47-.28.54-.2.06-.41-.03-.51-.21C10.38-4.27-4.27,10.38,28,30.26c.21.11.29.37.18.58-.1.18-.31.27-.51.21-36.85-8.74-36.85,12,0,3.24.23-.07.47.06.54.28.06.2-.03.41-.21.51-32.27,19.92-17.62,34.54,2.26,2.3.12-.21.38-.28.59-.16.17.1.25.29.2.48-8.74,36.86,12,36.86,3.24,0-.06-.23.08-.46.31-.52.19-.05.38.04.48.2,19.92,32.24,34.54,17.62,2.3-2.3-.21-.12-.28-.38-.16-.59.1-.17.29-.25.48-.2,36.86,8.75,36.86-12,0-3.24-.23.06-.46-.08-.52-.31-.05-.19.04-.38.2-.48Z"/>
    </g>
  </g>
</svg>