<?xml version="1.0" encoding="UTF-8"?>
<svg id="Layer_1" data-name="Layer 1" xmlns="http://www.w3.org/2000/svg" viewBox="0 0 283.22 278.93">
  <defs>
    <style>
      .cls-1 {
        fill: #231f20;
      }
    </style>
  </defs>
  <g>
    <path class="cls-1" d="m24.63,115.21c-3.15-10.5-6.37-21.04-9.65-31.61C11.77,73.03,1.78,47.49.43,43.53c-1.51-4.58,2.19-9.77,7.06-11.45,11.61-3.93,23.48-7.03,35.49-9.33,22.98-4.03,38.94,5.85,41.17,20.69,1.69,10.81-4.98,20.35-14.27,25.12,15.09-.68,24.64,6.92,26.34,19.25,2.52,18.31-7.78,32.14-26.28,43.35-20.49,12.69-25.2,18.63-27.73,20.42-3.36,2.89-7.68,2.29-9.29-3.14-1.13-3.83-5.14-22.68-8.3-33.23Zm43.91-69.15c-1.64-8.85-10.75-13.44-24.95-10.17-31.33,7.61-24.19,48.38-9.8,40.67,5.69-2.61,11.48-4.97,17.35-7.11,13.12-4.8,19.53-12.05,17.41-23.39Zm13.6,45.47c-2.36-14.49-13.75-21.37-34.06-13.44-6.13,2.53-12.16,5.33-18.07,8.41,11.33,40.59,11.2,55.56,35.55,39.94,12.11-7.29,19.2-19.23,16.59-34.91Z"/>
    <path class="cls-1" d="m105.02,49.89c-1.07-11.06-10.79-21.86-12.38-32.89-1.61-10.86,5.28-13.41,34.14-9.92,26.72,3.69,47.41,14.46,47.26,26.4-.02,4.34-4.08,6.5-10.34,5.52-14.72-1.95-4.16-22.28-34.89-26.96-11.21-1.45-17.79,4.29-16.9,12.51,2.93,27.92,43.12,12.22,43.69,27.62.11,4.31-4.38,6.37-8.78,6.26-13.87-.12-31.82-17.8-32.96-20.98-.21,0-.42,0-.63,0,.84,8.28,1.67,16.54,2.49,24.8,1.84,18.44,2.3,30.74,24.5,27.6,17.54-1.68,11.47-17.66,27.61-17.11,6.82.39,11.8,3.99,11.73,7.62-.16,8.04-16.08,11.04-38.1,13.96-29.99,4.47-36.47,6.42-38.45-8.81-1.39-11.83,3.14-24.21,2.01-35.63Z"/>
    <path class="cls-1" d="m184.66,83.59c.74-8.86,1.48-17.7,2.24-26.53.77-8.84-.17-20.42.43-27.46.98-11.68,8.25-12.21,16.29-8.82,6.83,2.87,12.86,9.51,11.62,18.99-2.72,22.75,1.26,69.71,25.95,74.7,12.16,3.29,12.51-1.56,18.15-31.64,1.21-6.41,2.5-23.22,2.95-25.61.63-3.37,5.88-2.63,10.57.5,4.7,3.12,8.7,8.26,8.07,11.27-.43,2.01-5.16,16-6.3,21.65-1.77,8.64-3.52,17.3-5.28,25.96-1.83,8.91-9.16,13.05-22.87,9.8-30.89-5.61-43.95-45.02-40.82-76.06-.34-.11-.67-.22-1.01-.34-1.19,12.08-2.35,24.17-3.51,36.27-.84,7.85-.68,22.82-1,25.68-.47,4.24-5.48,6.82-10.33,6.73-4.85-.11-9.47-3.17-9.12-7.84.24-3.31,3.21-18.41,3.97-27.26Z"/>
  </g>
  <g>
    <path class="cls-1" d="m47.51,193.14c4.19,1.94,6.77,9.16,5.73,16.14-1.14,8.16-8.83,33.03,8.29,40.57,11.76,4.64,18.5-8.31,23.2-48.26,1.25-10.44,2.5-20.88,3.76-31.31,1.58-13.35,4.04-46.39,4.65-51.22.85-6.85,5.47-10.66,9.52-9.83,4.05.83,7.51,6.32,6.83,13.23-.45,4.67-5.39,38.32-6.7,50.92-1.37,13.35-2.73,26.69-4.1,40.04-3.48,36.27-16.15,52.01-38.26,43.32-20.6-8.97-27.12-29.38-23.92-54.76.06-.37.12-.74.18-1.1,1.1-6.58,5.83-10.04,10.83-7.74Z"/>
    <path class="cls-1" d="m170.59,223.92c.41,28.38-12.26,48.65-34.99,50.65-21.72,1.41-31.74-18.85-28.77-50.81,3.56-39.65,8.8-72.25,28.45-69.22,9.91,1.42,13.58,8.61,13.37,15.57-.15,4.99-3.6,8.73-6.83,8.48-7.36-.61-5.56-15.43-12.29-16.34-4.67-.67-7.75,6.65-11.67,58.93-1.99,25.71,4.55,40.69,18.46,39.99,14.63-.92,23.12-16,23.3-39.95.07-5.65.14-11.31.21-16.96.1-9.71-.69-33.67-.62-37.24.08-5.04,3.14-8.17,6.14-7.91,3,.26,5.93,3.75,5.98,8.58.04,3.26-.9,27.14-.87,36.05.04,6.73.08,13.46.12,20.2Z"/>
    <path class="cls-1" d="m189.8,270.61c-5.46,1.92-11-.66-11.12-7.78-.07-5.04,1.31-28.71.98-42.32-.3-13.59-.6-27.19-.9-40.78-.34-13.59-2.57-47.38-2.64-52.44-.09-5.86,3.93-8.66,8.01-7.7,4.93,1.19,9.86,2.37,14.79,3.52,38.59,11.37,57.49,28.54,65.57,54.94,3.74,13.52,2.66,26.48-4.32,40.67-6.94,13.84-19.79,28.92-38.77,38.54-10.38,5.22-20.94,9.68-31.59,13.34Zm60.07-87.54c-5.75-25.3-21.01-37.95-43.56-42.46-19.97-3.22-19.93-2.3-17.79,55.03.78,28.5,7.83,57.49,35.51,44.78,19.48-9.61,31.54-32.45,25.83-57.35Z"/>
  </g>
  <path class="cls-1" d="m148.5,97.9l1.29,7.75s-16.31,5.43-16.8,10.34c-.27,2.73,5.33,2.43,9.05,2.58l2.58,5.17s-9.64,5.66-9.05,9.05c1.01,5.69,20.86,7.77,22.36-5.54.33-2.94.98-5.23-1.68-6.09-1.84-.59-7.75,0-7.75,0,.28-1.5.22-3.27,0-5.17,9.6-3.77,19.07-7.77,27.14-14.21,1.12,1.71,1.96,4.37,2.58,7.75-1.55,1.52-5.78,3.77-11.63,6.46,6.6,8.67,5.81,16.91-3.93,25.65-5.1,4.58-12.04,6.72-18.89,6.91-6.96.19-13.27-1.89-18.52-7.72-1.04-1.15-1.89-2.48-2.36-3.95-1.72-5.38,1.49-9.45,6.22-13.12-7.58-.8-10.42-4.14-10.34-9.05,5.08-10.9,16.12-15.25,29.72-16.8Z"/>
</svg>